<svg xmlns="http://www.w3.org/2000/svg" viewBox="0 0 64 64" fill="none">
  <path d="M16 22C16 14 22 6 32 6C42 6 48 14 48 22V38C48 48 42 56 32 58C22 56 16 48 16 38V22Z" fill="#c2410c"/>
  <path d="M16 22C16 14 22 6 32 6C42 6 48 14 48 22V28C48 28 40 32 32 32C24 32 16 28 16 28V22Z" fill="#ea580c"/>
  <ellipse cx="24" cy="24" rx="4" ry="5" fill="#141010"/>
  <ellipse cx="40" cy="24" rx="4" ry="5" fill="#141010"/>
  <ellipse cx="24" cy="23" rx="2" ry="2.5" fill="#fbbf24"/>
  <ellipse cx="40" cy="23" rx="2" ry="2.5" fill="#fbbf24"/>
  <path d="M26 38C26 38 29 42 32 42C35 42 38 38 38 38" stroke="#141010" stroke-width="2.5" stroke-linecap="round"/>
  <path d="M20 16L26 20M44 16L38 20" stroke="#fbbf24" stroke-width="1.5"/>
</svg>
